<?xml version="1.0" encoding="UTF-8"?> <!-- Creator: CorelDRAW 2018 (64-Bit) --> <svg xmlns="http://www.w3.org/2000/svg" xmlns:xlink="http://www.w3.org/1999/xlink" xml:space="preserve" width="84.6668mm" height="85.6194mm" style="shape-rendering:geometricPrecision; text-rendering:geometricPrecision; image-rendering:optimizeQuality; fill-rule:evenodd; clip-rule:evenodd" viewBox="0 0 639.7 646.9"> <defs> <style type="text/css"> <![CDATA[ .str7 {stroke:#215775;stroke-width:1.33;stroke-miterlimit:10} .str5 {stroke:#4BA5A1;stroke-width:3.18;stroke-linecap:round;stroke-miterlimit:10} .str4 {stroke:#6E8708;stroke-width:3.18;stroke-linecap:round;stroke-miterlimit:10} .str6 {stroke:#8EAF0C;stroke-width:3.18;stroke-linecap:round;stroke-miterlimit:10} .str1 {stroke:#2B7C77;stroke-width:3.29;stroke-linecap:round;stroke-miterlimit:10} .str2 {stroke:#4BA5A1;stroke-width:3.29;stroke-linecap:round;stroke-miterlimit:10} .str0 {stroke:#6E8708;stroke-width:3.29;stroke-linecap:round;stroke-miterlimit:10} .str3 {stroke:#8EAF0C;stroke-width:3.29;stroke-linecap:round;stroke-miterlimit:10} .fil2 {fill:none;fill-rule:nonzero} .fil12 {fill:#23597E;fill-rule:nonzero} .fil11 {fill:#334357;fill-rule:nonzero} .fil10 {fill:#3C5876;fill-rule:nonzero} .fil4 {fill:#58595B;fill-rule:nonzero} .fil3 {fill:#6E8708;fill-rule:nonzero} .fil15 {fill:#85E2E9;fill-rule:nonzero} .fil1 {fill:#8EAF0C;fill-rule:nonzero} .fil14 {fill:#B3B3B3;fill-rule:nonzero} .fil6 {fill:#C1C1C1;fill-rule:nonzero} .fil13 {fill:#CCCCCC;fill-rule:nonzero} .fil8 {fill:#ED5E45;fill-rule:nonzero} .fil7 {fill:#FF917C;fill-rule:nonzero} .fil5 {fill:white;fill-rule:nonzero} .fil9 {fill:black;fill-rule:nonzero;fill-opacity:0.050980} .fil0 {fill:url(#id0)} ]]> </style> <linearGradient id="id0" gradientUnits="userSpaceOnUse" x1="-0" y1="600.35" x2="639.7" y2="600.35"> <stop offset="0" style="stop-opacity:0.0980392; stop-color:black"></stop> <stop offset="1" style="stop-opacity:0.0980392; stop-color:black"></stop> </linearGradient> </defs> <g id="Слой_x0020_1"> <metadata id="CorelCorpID_0Corel-Layer"></metadata> <ellipse class="fil0" cx="319.85" cy="600.35" rx="319.85" ry="46.55"></ellipse> <g id="_6749791600"> <g> <path class="fil1" d="M488.17 535.81c50.76,11.22 104.56,-23.03 105.2,-43.33 0.64,-20.3 -48.7,21.84 -55.86,1.18 -7.15,-20.66 53.67,-28.96 54.53,-50.79 0.86,-21.83 -53.79,29.72 -58,15.77 -4.22,-13.95 48.48,-46.97 40.65,-63.03 -7.83,-16.05 -39.68,40.43 -48.75,32.82 -9.07,-7.61 27.69,-60.23 5.54,-64.28 -22.15,-4.05 -18.3,44.36 -26.02,54.2 -7.72,9.84 -7.26,-46.56 -20.45,-42.22 -13.19,4.33 9.4,58.64 0.48,65.95 -8.92,7.31 -22.21,-40.92 -37.18,-29.79 -14.97,11.13 23.63,41.91 19.95,56.27 -3.68,14.36 -28.73,-28.54 -42.17,-17.19 -13.44,11.35 19.54,75.03 62.07,84.43z"></path> <path class="fil2 str0" d="M526.05 379.83c0,0 -23,92.29 -51.13,176.77"></path> <path class="fil2 str0" d="M571.76 452.83c0,0 -63.01,31.11 -83.65,59.44 0,0 0.77,-50.47 -31.4,-85.01"></path> <path class="fil2 str0" d="M556.9 412.61c0,0 -46.99,44.84 -61.73,78.35 0,0 3.83,-60.61 -5.96,-92.64"></path> <path class="fil2 str1" d="M580.73 498.47c0,0 -85.21,14.12 -95.91,28.22 0,0 -23.58,-52.88 -52.87,-67"></path> </g> <g> <path class="fil1" d="M514.21 499.36c26.02,-19.63 92.55,-55.27 118.75,-30.49 30.22,28.57 -80.22,38.91 -80.22,38.91 0,0 72.3,-0.67 73.33,32.24 1.03,32.91 -81.41,-8.85 -81.41,-8.85 0,0 44.18,20.94 28.91,33.27 -15.27,12.33 -75.63,-40.17 -91.14,-28.91 -15.51,11.26 13.94,-22.71 31.77,-36.16z"></path> <path class="fil2 str0" d="M487.19 529.5c26.29,-21.79 57.11,-38.91 90.08,-48.04 12.11,-3.35 24.54,-5.6 37.07,-6.55"></path> <path class="fil2 str2" d="M487.25 530.28c38.93,-15.56 84.15,-14.23 120.66,5.01"></path> <path class="fil2 str2" d="M487.46 530.78c25.23,-0.88 50.04,7.57 71.04,21.23"></path> </g> <g> <path class="fil3" d="M477.24 546.26c4.52,-13.27 20.1,-22.9 32.21,-27.87 29.63,-12.17 77.62,-22.39 100.08,8.36 7.15,9.79 9.37,23.01 5.79,34.6 -6.54,21.16 -30.17,30.8 -50.29,33.71 -26.91,3.89 -64.92,-1.76 -82.79,-24.69 -3.09,-3.96 -5.48,-8.59 -6.1,-13.57 -0.46,-3.73 -0.02,-7.24 1.1,-10.54z"></path> <path class="fil2 str3" d="M481.27 554.12c0,0 82.59,-22.27 127.82,-7.03"></path> <path class="fil2 str3" d="M590.72 569.35c0,0 -21.36,-25.8 -33.46,-26.95 0,0 17.2,-16.88 30.29,-20.68"></path> <path class="fil2 str3" d="M556.74 512.04c0,0 -24.28,17.1 -24.82,32.24 0,0 21.67,21.39 29.8,38.36"></path> <path class="fil2 str3" d="M514.28 521.3c0,0 -9.37,18.48 -7.93,27.69 0,0 13.61,18.65 20.9,35.39"></path> </g> </g> <g id="_6749804464"> <path class="fil1" d="M166.36 484.91c-9.48,-37.81 -44.63,-120.96 -87.63,-117.59 -49.59,3.9 45.45,96.47 45.45,96.47 0,0 -66.8,-54.93 -92.48,-25.07 -25.68,29.86 82.43,52.91 82.43,52.91 0,0 -56.85,-13.7 -51.89,9.25 4.96,22.95 100.57,19.42 106.54,41.55 5.98,22.13 4.08,-31.61 -2.41,-57.52z"></path> <path class="fil2 str4" d="M168.88 533.26c-8.11,-40.03 -23.93,-79.11 -47.77,-112.39 -8.76,-12.22 -18.64,-23.64 -29.59,-33.94"></path> <path class="fil2 str4" d="M168.23 533.93c-24.54,-43.72 -67.64,-76.45 -116.08,-85.96"></path> <path class="fil2 str5" d="M167.66 534.24c-22.82,-19.77 -52.26,-30.54 -82.07,-33.6"></path> </g> <g id="_6749801136"> <path class="fil3" d="M183.17 542.49c-5.41,-15.87 -24.05,-27.39 -38.53,-33.33 -35.44,-14.56 -92.84,-26.78 -119.71,10 -8.56,11.71 -11.2,27.53 -6.92,41.39 7.82,25.31 36.08,36.84 60.16,40.32 32.19,4.65 77.65,-2.11 99.03,-29.53 3.69,-4.74 6.55,-10.28 7.29,-16.24 0.55,-4.46 0.03,-8.66 -1.31,-12.6z"></path> <path class="fil2 str6" d="M178.35 551.89c0,0 -98.78,-26.64 -152.88,-8.41"></path> <path class="fil2 str6" d="M47.44 570.1c0,0 25.55,-30.86 40.02,-32.24 0,0 -20.58,-20.19 -36.23,-24.73"></path> <path class="fil2 str6" d="M88.08 501.56c0,0 29.04,20.46 29.69,38.57 0,0 -25.92,25.59 -35.65,45.89"></path> <path class="fil2 str6" d="M138.87 512.63c0,0 11.21,22.11 9.48,33.12 0,0 -16.28,22.3 -25,42.33"></path> </g> <path class="fil2 str7" d="M374.55 132.73c0,25.39 20.58,45.96 45.96,45.96 25.38,0 45.96,-20.58 45.96,-45.96 0,-25.38 -20.58,-45.96 -45.96,-45.96 -25.39,0 -45.96,20.58 -45.96,45.96z"></path> <path class="fil2 str7" d="M390 132.73c0,16.85 13.66,30.52 30.51,30.52 16.85,0 30.51,-13.66 30.51,-30.52 0,-16.85 -13.66,-30.51 -30.51,-30.51"></path> <path class="fil4" d="M434.59 600.35l-229.49 0c-30.99,0 -56.12,-25.13 -56.12,-56.12l0 -488.11c0,-30.99 25.13,-56.12 56.12,-56.12l229.49 0c30.99,0 56.12,25.13 56.12,56.12l0 488.11c0,30.99 -25.13,56.12 -56.12,56.12z"></path> <path class="fil5" d="M434.59 13.31l-50.04 0c-4.86,0 -9.12,3.27 -10.37,7.98l-1.59 6c-1.34,5.06 -5.92,8.57 -11.15,8.57l-83.18 0c-5.23,0 -9.81,-3.52 -11.15,-8.57l-1.59 -6c-1.25,-4.7 -5.5,-7.98 -10.37,-7.98l-50.04 0c-23.64,0 -42.81,19.17 -42.81,42.81l0 488.11c0,23.64 19.17,42.81 42.81,42.81l229.49 0c23.64,0 42.81,-19.17 42.81,-42.81l0 -488.11c0,-23.64 -19.17,-42.81 -42.81,-42.81z"></path> <path class="fil6" d="M250.78 155.57l-53.25 0c-6.71,0 -12.16,-5.44 -12.16,-12.16l0 -53.25c0,-6.71 5.44,-12.16 12.16,-12.16l53.25 0c6.72,0 12.16,5.44 12.16,12.16l0 53.25c0,6.72 -5.44,12.16 -12.16,12.16z"></path> <path class="fil6" d="M346.48 155.57l-53.25 0c-6.72,0 -12.16,-5.44 -12.16,-12.16l0 -53.25c0,-6.71 5.44,-12.16 12.16,-12.16l53.25 0c6.71,0 12.16,5.44 12.16,12.16l0 53.25c0,6.72 -5.44,12.16 -12.16,12.16z"></path> <path class="fil6" d="M442.17 155.57l-53.25 0c-6.71,0 -12.16,-5.44 -12.16,-12.16l0 -53.25c0,-6.71 5.44,-12.16 12.16,-12.16l53.25 0c6.72,0 12.16,5.44 12.16,12.16l0 53.25c0,6.72 -5.44,12.16 -12.16,12.16z"></path> <g id="_6749826064"> <path class="fil6" d="M445.54 332.79l-251.37 0c-4.86,0 -8.79,-3.94 -8.79,-8.79l0 -36.52c0,-4.86 3.94,-8.79 8.79,-8.79l251.37 0c4.86,0 8.79,3.94 8.79,8.79l0 36.52c0,4.86 -3.94,8.79 -8.79,8.79z"></path> </g> <g id="_6749842608"> <path class="fil6" d="M445.54 258.36l-251.37 0c-4.86,0 -8.79,-3.94 -8.79,-8.79l0 -36.52c0,-4.86 3.94,-8.79 8.79,-8.79l251.37 0c4.86,0 8.79,3.94 8.79,8.79l0 36.52c0,4.86 -3.94,8.79 -8.79,8.79z"></path> </g> <g id="_6749841040"> <path class="fil6" d="M445.54 409.1l-251.37 0c-4.86,0 -8.79,-3.94 -8.79,-8.79l0 -36.52c0,-4.86 3.94,-8.79 8.79,-8.79l251.37 0c4.86,0 8.79,3.94 8.79,8.79l0 36.52c0,4.86 -3.94,8.79 -8.79,8.79z"></path> </g> <g id="_6749805392"> <polygon class="fil2 str7" points="208.2,226.19 214.36,236.86 220.53,226.19 "></polygon> <g> <path class="fil6" d="M445.54 258.36l-251.37 0c-4.86,0 -8.79,-3.94 -8.79,-8.79l0 -36.52c0,-4.86 3.94,-8.79 8.79,-8.79l251.37 0c4.86,0 8.79,3.94 8.79,8.79l0 36.52c0,4.86 -3.94,8.79 -8.79,8.79z"></path> </g> <g> <path class="fil7" d="M445.54 258.36l-251.37 0c-4.86,0 -8.79,-3.94 -8.79,-8.79l0 -36.52c0,-4.86 3.94,-8.79 8.79,-8.79l251.37 0c4.86,0 8.79,3.94 8.79,8.79l0 36.52c0,4.86 -3.94,8.79 -8.79,8.79z"></path> <path class="fil8" d="M445.54 204.25l-44.01 0 0 54.11 44.01 0c4.86,0 8.79,-3.94 8.79,-8.79l0 -36.52c0,-4.86 -3.94,-8.79 -8.79,-8.79z"></path> <g> <path class="fil8" d="M353.8 221.23l-148.97 0c-1.64,0 -2.97,-1.33 -2.97,-2.97 0,-1.64 1.33,-2.97 2.97,-2.97l148.97 0c1.64,0 2.97,1.33 2.97,2.97 0,1.64 -1.33,2.97 -2.97,2.97z"></path> <path class="fil8" d="M353.8 234.28l-148.97 0c-1.64,0 -2.97,-1.33 -2.97,-2.97 0,-1.64 1.33,-2.97 2.97,-2.97l148.97 0c1.64,0 2.97,1.33 2.97,2.97 0,1.64 -1.33,2.97 -2.97,2.97z"></path> <path class="fil8" d="M266.22 247.32l-61.39 0c-1.64,0 -2.97,-1.33 -2.97,-2.97 0,-1.64 1.33,-2.97 2.97,-2.97l61.39 0c1.64,0 2.97,1.33 2.97,2.97 0,1.64 -1.33,2.97 -2.97,2.97z"></path> </g> <path class="fil5" d="M437.91 231.31c0,5.51 -4.47,9.98 -9.98,9.98 -5.51,0 -9.98,-4.47 -9.98,-9.98 0,-5.51 4.47,-9.98 9.98,-9.98 5.51,0 9.98,4.47 9.98,9.98z"></path> </g> </g> <path class="fil9" d="M191.19 433.26c-1,-2.7 -2.65,-5.16 -4.75,-6.99 3.55,-4.37 7.05,-8.78 10.52,-13.22 4.03,-5.17 8.01,-10.39 11.92,-15.65 -1.02,-0.6 -2.04,-1.19 -3.05,-1.79 -3.41,2.77 -6.74,5.71 -10,8.74 -1.66,1.54 -3.31,3.11 -4.93,4.7 -4.4,4.29 -8.69,8.7 -12.9,13.06 0,0.3 0.01,0.6 0.01,0.89 -0.77,0.01 -1.57,0.09 -2.37,0.25 -2.77,0.55 -5.36,1.94 -7.56,3.87 -0.83,-0.2 -1.67,-0.38 -2.51,-0.52 -0.03,-0.03 -0.06,-0.07 -0.08,-0.1 -0.04,0.02 -0.07,0.05 -0.11,0.07 -3.28,-0.54 -6.65,-0.65 -9.96,-0.39 -5.75,0.44 -11.39,1.97 -16.7,4.21 -0.5,0.21 -1.06,0.47 -1.66,0.77 -2.42,1.22 -5.36,3.12 -6.74,5.46 -1.97,-0.42 -3.91,-1.02 -5.8,-1.69 -4.05,-1.44 -8.24,-3.27 -12.43,-3.68 -4.9,-3.27 -10.74,-3.84 -14.27,2.01 -1.89,3.13 -2.84,6.98 -2.8,10.65 -0.43,1.14 -0.8,2.31 -1.09,3.47 -8.5,33.66 28.64,66.22 63.17,70.12l5.07 14.22c-0,0 1.44,4.35 3.97,10.41 -0.65,1.07 -1.21,2.21 -1.66,3.4 -1.04,2.75 -1.55,5.8 -1.57,8.98 -0.02,3.76 0.99,7.64 3.49,10.45 2.23,2.52 5.52,3.98 8.87,4.3 0.11,0.01 0.23,0.02 0.34,0.03 0.56,3.83 0.4,7.78 -0.2,11.61 -0.51,3.27 -1.33,6.48 -2.28,9.66 -3.77,2.15 -6.14,8.85 -7.32,12.87 -0.29,0.98 -0.5,1.81 -0.65,2.36 -0.06,0.23 -0.12,0.46 -0.18,0.69 -0.63,2.54 -1.02,5.12 -1.24,7.71 -0.6,0.13 -1.19,0.31 -1.75,0.56 -1.99,0.89 -3.51,2.57 -4.74,4.36 -5.79,8.52 2.41,6.99 8.81,6.81 1.81,-0.05 21.43,-0.42 21.44,-0.27 -0,-0.91 -0.27,-1.76 -0.7,-2.54 -0.08,-2.05 -0.11,-4.2 -0.15,-6.38 -0.01,-1.18 -0.03,-2.37 -0.05,-3.55 -0.03,-2.07 -0.09,-4.1 -0.2,-6.02 -0.18,-3.14 -0.1,-7.04 -1.59,-10.46 2.49,-5.52 2.67,-12.47 2.05,-18.4 -0.13,-1.29 -0.3,-2.58 -0.52,-3.87 2.73,2.3 5.6,3.84 8.56,4.25 3.68,0.51 9.76,0.13 17.11,-0.79 -0.09,1.01 -0.22,2.01 -0.37,3.01 -0.51,3.27 -1.33,6.48 -2.28,9.66 -3.77,2.15 -6.14,8.85 -7.32,12.87 -0.29,0.98 -0.5,1.81 -0.65,2.36 -0.06,0.23 -0.12,0.46 -0.18,0.69 -0.63,2.54 -1.02,5.12 -1.24,7.71 -0.6,0.13 -1.19,0.31 -1.75,0.56 -1.99,0.89 -3.51,2.57 -4.74,4.36 -5.79,8.52 2.41,6.99 8.81,6.81 1.81,-0.05 21.43,-0.42 21.44,-0.27 -0,-0.91 -0.27,-1.76 -0.7,-2.54 -0.08,-2.05 -0.11,-4.2 -0.15,-6.38 -0.01,-1.18 -0.03,-2.37 -0.05,-3.55 -0.03,-2.07 -0.09,-4.1 -0.2,-6.02 -0.18,-3.14 -0.1,-7.04 -1.59,-10.46 2.49,-5.52 2.67,-12.47 2.05,-18.4 -0.07,-0.67 -0.15,-1.33 -0.24,-2 3.76,-0.62 7.68,-1.31 11.64,-2.06 2.27,1.72 5.22,2.47 8.07,2.29 0.1,-0.01 0.2,-0.01 0.31,-0.02 1.03,3.27 1.44,6.75 1.45,10.19 0.01,3.04 -0.28,6.08 -0.68,9.1 -2.49,2.54 -4.13,7.23 -5.01,10.23 -0.26,0.87 -0.45,1.6 -0.58,2.09 -0.06,0.2 -0.11,0.41 -0.16,0.61 -0.56,2.25 -0.91,4.53 -1.1,6.83 -0.53,0.11 -1.05,0.27 -1.55,0.49 -1.76,0.78 -3.12,2.27 -4.2,3.87 -5.13,7.55 2.13,6.2 7.8,6.04 1.6,-0.05 18.99,-0.36 18.99,-0.23 -0,-0.81 -0.24,-1.56 -0.62,-2.25 -0.07,-1.81 -0.1,-3.73 -0.13,-5.65 -0.01,-1.05 -0.02,-2.1 -0.05,-3.14 -0.03,-1.83 -0.07,-3.64 -0.18,-5.34 -0.18,-3.16 -0.06,-7.18 -2.02,-10.48 1.28,-5.1 0.47,-11.05 -0.87,-16.04 -0.85,-3.15 -1.93,-6.31 -3.61,-9.08 1.32,-0.95 2.48,-2.1 3.47,-3.39 3.21,-0.68 6.33,-1.37 9.29,-2.02 0.76,2.2 2,4.23 3.79,5.69 2.31,1.89 5.39,2.71 8.36,2.52 0.1,-0.01 0.2,-0.01 0.31,-0.02 1.03,3.27 1.44,6.75 1.45,10.19 0.01,3.04 -0.28,6.08 -0.68,9.1 -2.49,2.54 -4.13,7.23 -5.01,10.23 -0.26,0.87 -0.45,1.6 -0.58,2.09 -0.06,0.2 -0.11,0.41 -0.16,0.61 -0.56,2.25 -0.91,4.53 -1.1,6.83 -0.53,0.11 -1.05,0.27 -1.55,0.49 -1.76,0.78 -3.12,2.27 -4.2,3.87 -5.13,7.55 2.13,6.2 7.8,6.04 1.6,-0.05 18.99,-0.36 18.99,-0.23 -0,-0.81 -0.24,-1.56 -0.62,-2.25 -0.07,-1.81 -0.1,-3.73 -0.13,-5.65 -0.01,-1.05 -0.02,-2.1 -0.05,-3.14 -0.03,-1.83 -0.07,-3.64 -0.18,-5.34 -0.18,-3.16 -0.06,-7.18 -2.02,-10.48 1.28,-5.1 0.47,-11.05 -0.87,-16.04 -0.85,-3.15 -1.93,-6.31 -3.61,-9.09 4.96,-3.57 7.77,-10 7.34,-16.31 -0.2,-2.91 -0.91,-5.88 -2.65,-8.23 -0.01,-0.02 -0.03,-0.04 -0.04,-0.06 -0.02,-0.34 -0.03,-0.69 -0.05,-1.04 -0.03,-0.69 -0.07,-1.39 -0.11,-2.1 -0.64,-12.55 -1.7,-28.03 -3.08,-30.05 0.56,-1.47 1.7,-2.52 3.28,-3.12 0.09,-0.04 0.19,-0.06 0.29,-0.09 0.79,3.24 4.66,4.84 7.67,2.49 1.38,-1.07 1.55,-3 0.58,-4.43 -0.9,-1.34 -2.45,-1.78 -3.99,-1.89 0.12,-0.15 0.24,-0.29 0.37,-0.42 0.77,-0.81 1.73,-1.39 2.74,-1.85 1.2,0.47 2.31,0.8 3.36,1.11 5.79,-4.69 11.52,-9.46 17.18,-14.3 4.99,-4.26 9.92,-8.58 14.81,-12.95 -0.88,-0.79 -1.76,-1.58 -2.63,-2.37 -3.9,2.03 -7.75,4.24 -11.55,6.56 -1.94,1.18 -3.86,2.39 -5.77,3.62 -5.17,3.32 -10.25,6.78 -15.25,10.22 -0.31,1.62 -0.62,3.25 -0.92,4.87 -2.79,1.22 -5.4,2.99 -6.36,5.84 -3.09,0.71 -5.88,2.49 -6.97,5.5 -11.42,-2.69 -50.39,-6.8 -67.31,-17.16 3.92,-2.57 7.14,-6.56 8.45,-10.32 1.83,-5.22 0.72,-11.54 -2.59,-15.88 4.35,-3.57 8.67,-7.19 12.95,-10.85 4.98,-4.26 9.92,-8.58 14.81,-12.95 -0.88,-0.79 -1.76,-1.58 -2.63,-2.37 -3.9,2.03 -7.75,4.24 -11.55,6.56 -1.94,1.18 -3.86,2.39 -5.77,3.62 -5.17,3.32 -10.25,6.78 -15.25,10.22 -0.06,0.29 -0.11,0.58 -0.17,0.88 -0.42,-0.08 -0.84,-0.14 -1.28,-0.18 0.04,-2.58 -0.09,-5.15 -0.42,-7.67 -1.41,-10.66 -6.46,-20.29 -17.24,-24.62 -0.68,-0.27 -1.36,-0.53 -2.05,-0.77z"></path> <g id="_6749840944"> <g> <path class="fil10" d="M239.47 570.15c0.53,-0.01 0.96,0.41 1.31,0.81 2.88,3.33 4.46,7.59 5.61,11.85 1.65,6.13 2.49,13.68 -0.34,19.36 -3.63,-0.45 -7.18,-0.62 -10.7,-1.62 0.72,-4.59 1.41,-9.21 1.39,-13.86 -0.02,-4.65 -0.76,-9.36 -2.78,-13.55 -0.15,-0.18 -0.51,-0.11 -0.57,0.13 2.24,-0.69 4.03,-1.98 6.08,-3.12z"></path> <g> <path class="fil11" d="M222.23 557.27c-0.52,2.55 -0.54,5.29 -0.12,8.08 0.5,3.29 1.94,6.54 4.51,8.65 2.31,1.89 5.39,2.71 8.36,2.52 9.62,-0.62 15.75,-10 15.13,-19.11 -0.2,-2.91 -0.91,-5.88 -2.65,-8.23 -4.02,-5.43 -11.04,-6.16 -16.81,-3.16 -4.78,2.49 -7.46,6.55 -8.43,11.25z"></path> <path class="fil12" d="M239.79 552.59c0.69,5.15 1.11,10.32 1.35,15.51 1.64,-1.02 2.91,-2.77 3.48,-4.65 1.22,-4.01 -0.69,-9.58 -4.83,-10.85z"></path> <path class="fil12" d="M235.59 552.77c-4.44,1.82 -3.96,8.73 -2.97,12.7 0.14,0.57 0.3,1.14 0.63,1.62 0.47,0.67 1.22,1.06 1.98,1.36 0.57,0.22 1.17,0.4 1.77,0.49 -0.24,-5.41 -0.69,-10.81 -1.42,-16.17z"></path> </g> <g> <path class="fil13" d="M249.68 624.34l-20.61 -0.8c-0.17,-5 0.05,-9.99 1.25,-14.83 0.05,-0.2 0.1,-0.41 0.16,-0.61 0.13,-0.49 0.32,-1.22 0.58,-2.09 1.26,-4.29 4.07,-12.05 8.73,-12 1.19,0.01 2.36,0.44 3.34,0.97 6.29,3.39 5.9,9.77 6.17,14.35 0.1,1.7 0.15,3.5 0.18,5.34 0.02,1.05 0.03,2.1 0.05,3.14 0.03,2.24 0.06,4.46 0.17,6.53z"></path> <path class="fil11" d="M223.46 619.91c1.08,-1.59 2.44,-3.08 4.2,-3.87 1.59,-0.71 3.39,-0.79 5.13,-0.68 5,0.3 9.9,2.08 13.94,5.04 1.78,1.31 3.52,3.1 3.53,5.31 0,-0.14 -17.39,0.18 -18.99,0.23 -5.67,0.16 -12.93,1.51 -7.8,-6.04z"></path> <path class="fil11" d="M249.51 617.81c-2.92,-1.81 -4.65,-5.47 -7.07,-7.99 -1.9,-1.99 -5,-3.68 -7.83,-3.42 -1.97,0.18 -3.18,1.11 -4.29,2.31 0.05,-0.2 0.1,-0.41 0.16,-0.61 0.13,-0.49 0.32,-1.22 0.58,-2.09 2.38,-1.44 5.74,-1.89 7.87,-1.31 2.76,0.73 5.04,2.73 6.75,4.94 1.22,1.59 2.3,3.64 3.79,5.03 0.02,1.05 0.03,2.1 0.05,3.14z"></path> </g> </g> <g> <path class="fil10" d="M173.86 562.94c0.59,0.09 1,0.63 1.32,1.14 2.62,4.23 3.62,9.26 4.14,14.2 0.74,7.12 0.34,15.69 -3.83,21.51 -3.96,-1.15 -7.89,-1.98 -11.63,-3.71 1.62,-4.99 3.21,-10.02 4.02,-15.2 0.81,-5.18 0.82,-10.57 -0.68,-15.59 -0.14,-0.23 -0.55,-0.21 -0.66,0.04 2.62,-0.37 4.84,-1.48 7.33,-2.39z"></path> <g> <path class="fil11" d="M156.94 545.52c-1.04,2.75 -1.55,5.8 -1.57,8.98 -0.02,3.76 0.99,7.64 3.49,10.45 2.23,2.52 5.52,3.98 8.87,4.3 10.83,1.02 19.34,-8.34 20.27,-18.6 0.3,-3.28 0.03,-6.72 -1.49,-9.64 -3.51,-6.77 -11.21,-8.84 -18.17,-6.52 -5.77,1.92 -9.48,5.97 -11.4,11.04z"></path> <path class="fil12" d="M177.34 543.44c-0.15,5.86 -0.6,11.7 -1.26,17.52 2.01,-0.85 3.73,-2.57 4.71,-4.57 2.08,-4.25 0.94,-10.8 -3.45,-12.96z"></path> <path class="fil12" d="M172.63 542.89c-5.27,1.24 -5.97,9.02 -5.57,13.63 0.06,0.66 0.13,1.33 0.41,1.92 0.4,0.83 1.17,1.4 1.97,1.87 0.6,0.35 1.23,0.65 1.89,0.87 0.69,-6.07 1.16,-12.17 1.3,-18.28z"></path> </g> <path class="fil13" d="M179.3 624.09l-23.26 -0.89c-0.2,-5.64 0.05,-11.28 1.4,-16.73 0.06,-0.23 0.11,-0.46 0.18,-0.69 0.15,-0.55 0.36,-1.37 0.65,-2.36 1.42,-4.84 4.59,-13.61 9.84,-13.55 1.34,0.01 2.66,0.49 3.77,1.09 7.1,3.82 6.67,11.02 6.97,16.19 0.11,1.92 0.17,3.96 0.2,6.02 0.02,1.18 0.04,2.37 0.05,3.55 0.04,2.53 0.08,5.04 0.19,7.37z"></path> <path class="fil11" d="M149.72 619.11c1.22,-1.8 2.75,-3.48 4.74,-4.36 1.79,-0.8 3.82,-0.89 5.78,-0.77 5.64,0.34 11.18,2.34 15.74,5.68 2.01,1.47 3.97,3.5 3.99,5.99 -0,-0.15 -19.63,0.22 -21.44,0.27 -6.4,0.18 -14.6,1.71 -8.81,-6.81z"></path> <path class="fil11" d="M179.11 616.73c-3.29,-2.04 -5.26,-6.17 -7.99,-9.02 -2.15,-2.24 -5.64,-4.15 -8.84,-3.85 -2.22,0.21 -3.59,1.25 -4.84,2.61 0.06,-0.23 0.11,-0.46 0.18,-0.69 0.15,-0.55 0.36,-1.37 0.65,-2.36 2.69,-1.62 6.48,-2.13 8.89,-1.49 3.12,0.83 5.69,3.07 7.62,5.57 1.38,1.79 2.6,4.1 4.28,5.67 0.02,1.18 0.04,2.37 0.05,3.55z"></path> </g> <g> <path class="fil11" d="M290.24 502.22c-3.76,1.22 -8.22,3.1 -9.54,7.03 -3.56,0.82 -6.73,3.06 -7.35,6.96 -0.34,2.12 2.9,3.03 3.24,0.89 0.33,-2.07 1.62,-3.53 3.58,-4.27 0.09,-0.04 0.19,-0.06 0.29,-0.09 0.79,3.24 4.66,4.84 7.67,2.49 1.38,-1.07 1.55,-3 0.58,-4.43 -0.9,-1.34 -2.45,-1.78 -3.99,-1.89 0.12,-0.15 0.24,-0.29 0.37,-0.42 1.58,-1.66 3.92,-2.35 6.04,-3.04 2.05,-0.66 1.17,-3.91 -0.89,-3.24zm-4.34 9.6l0 0c0.58,0.17 1.11,0.6 1.06,1.18 -0.06,0.8 -1.15,1.1 -1.91,0.84 -0.5,-0.17 -1.68,-0.9 -1.65,-1.55 0.04,-0.85 1.33,-0.62 2.1,-0.55 0.13,0.01 0.27,0.04 0.4,0.07z"></path> <g> <g> <path class="fil10" d="M291.2 507.76c10.88,-8.82 21.55,-17.91 31.99,-27.25 -0.88,-0.79 -1.76,-1.58 -2.63,-2.37 -11.26,5.88 -22.11,13.2 -32.57,20.39 -0.48,2.52 -0.96,5.04 -1.44,7.57 1.7,0.77 3.24,1.24 4.65,1.66z"></path> </g> <g> <path class="fil1" d="M309.01 484.7c-1.94,1.18 -3.86,2.39 -5.77,3.61 2.04,1.35 3.82,3.12 5.14,5.14 1.8,-1.54 3.59,-3.1 5.39,-4.65 -1.37,-1.52 -3.07,-2.86 -4.76,-4.1z"></path> </g> </g> </g> <g> <g> <g> <path class="fil13" d="M280.68 562.44c0,0 -75.37,18.72 -93.34,16.23 -17.97,-2.49 -32.73,-46.96 -32.73,-46.96l37.32 -27.91 11.31 -8.46c16.65,13.71 71.2,17.64 73.6,20.52 1.41,1.69 2.49,17.41 3.13,30.12 0.46,8.97 0.71,16.45 0.71,16.45z"></path> <path class="fil14" d="M280.68 562.44c0,0 -75.37,18.72 -93.34,16.23 -8.75,-1.21 -16.75,-12.39 -22.64,-23.53 -0.49,-0.93 -0.97,-1.86 -1.43,-2.78 -5.37,-10.73 -8.66,-20.64 -8.66,-20.64l37.32 -27.91c-0.83,4.26 -1.08,8.6 -0.52,13.05 1.36,10.7 7.46,20.92 16.8,26.32 3.64,2.11 7.68,3.46 11.74,4.56 19.61,5.28 40.75,4.6 60.02,-1.74 0.04,0.71 0.07,1.41 0.11,2.1 0.07,1.47 0.14,2.89 0.2,4.22 0.26,5.91 0.4,10.13 0.4,10.13z"></path> </g> <path class="fil10" d="M280.28 552.31c-4.08,1.8 -8.39,3.14 -12.39,4.34 -17.33,5.18 -36.1,9.63 -54.25,7.17 -13.88,-1.88 -30.47,-8.62 -35.18,-23.02 -4.09,1.44 -8.31,2.61 -12.6,3.25 0.12,2.99 -0.04,5.96 -0.63,8.92 -0.15,0.75 -0.33,1.48 -0.53,2.17 -0.49,-0.93 -0.97,-1.86 -1.43,-2.78 0.36,-3.08 0.33,-6.2 -0.11,-9.11 -0.1,-0.69 0.17,-1.47 0.94,-1.65 5.12,-1.2 10.11,-2.47 15,-4.43 0.8,-0.32 1.78,0.35 1.98,1.12 2.04,7.89 8.35,13.52 15.44,17.05 15.11,7.51 33.49,5.92 49.48,2.68 8.05,-1.64 16.12,-3.61 23.98,-6.01 3.53,-1.08 6.86,-2.41 10.1,-3.92 0.07,1.47 0.14,2.89 0.2,4.22z"></path> </g> <path class="fil8" d="M147.61 512.03l7.02 19.68c0,0 47.05,-6.63 48.62,-36.36l-7.13 -7.51 -48.51 24.19z"></path> </g> <g> <g> <path class="fil11" d="M153.89 443.75c1.09,6.6 7.4,13.54 14.33,13.91 8.1,0.43 15.41,-9.02 16.41,-16.36 1.27,-9.33 -6.42,-20.08 -16.53,-18.06 -8.7,1.74 -15.66,11.77 -14.21,20.5z"></path> <g> <path class="fil10" d="M175.45 430.51c8.9,-10.82 17.53,-21.86 25.89,-33.1 -1.02,-0.6 -2.04,-1.19 -3.05,-1.79 -9.86,8.01 -19.02,17.35 -27.84,26.49 0.03,2.57 0.07,5.13 0.11,7.7 1.81,0.42 3.42,0.57 4.89,0.7z"></path> </g> <g> <path class="fil1" d="M188.29 404.36c-1.66,1.54 -3.31,3.11 -4.94,4.7 2.27,0.91 4.36,2.29 6.07,4 1.46,-1.87 2.9,-3.76 4.35,-5.64 -1.65,-1.21 -3.58,-2.18 -5.48,-3.06z"></path> </g> <g> <path class="fil12" d="M174.81 433.38c0.08,-0.12 0.16,-0.22 0.24,-0.32 -0.94,-0.18 -1.92,-0.23 -2.88,-0.14 -5.29,0.48 -8.39,4.7 -9.42,9.64 -0.61,2.92 -0.05,6.24 1.7,8.44 3.87,-5.6 6.75,-11.84 10.36,-17.61z"></path> <path class="fil12" d="M180.9 437.44c-0.25,-0.57 -0.56,-1.08 -0.92,-1.54 -0.41,-0.52 -0.88,-0.96 -1.4,-1.34 0,0.35 -0.1,0.72 -0.33,1.09 -3.6,5.75 -6.48,11.97 -10.33,17.56 0.74,0.17 1.56,0.23 2.46,0.13 1.62,-0.17 3.13,-0.89 4.48,-1.79 4.15,-2.77 8.26,-8.99 6.03,-14.11z"></path> </g> <g> <path class="fil15" d="M161.44 439.01c-0.33,1.08 -1.08,2.19 -1.83,3.04 -2.73,-0.44 -5.82,-0.89 -8.55,-1.33 -0.19,-2.52 0.48,-5.1 1.87,-7.21 2.64,1.42 5.93,3.97 8.5,5.5z"></path> </g> <g> <path class="fil12" d="M162.12 432.64c-0.53,0.64 -1.36,1.17 -2.1,1.53 -1.72,-1.07 -3.68,-2.26 -5.4,-3.34 0.59,-1.76 1.78,-3.31 3.32,-4.34 1.38,1.71 2.88,4.37 4.18,6.15z"></path> </g> </g> <path class="fil13" d="M201.62 479.8c-5.91,24.34 -25.59,40.18 -50.86,37.82 -34.86,-3.27 -72.98,-36.19 -64.37,-70.25 1.25,-4.98 3.82,-10.05 7.73,-13.16 1.59,-1.26 3.39,-2.2 5.41,-2.68 5.85,-1.39 11.78,1.38 17.45,3.39 4.86,1.72 10.07,2.93 15.14,2.07 3.2,-0.54 6.21,-1.89 9.3,-2.89 13.62,-4.4 30.83,-5.48 44.31,-0.06 10.78,4.33 15.82,13.96 17.24,24.62 0.93,7.01 0.28,14.47 -1.34,21.15z"></path> <path class="fil14" d="M201.62 479.8c-5.91,24.34 -25.59,40.18 -50.86,37.82 -34.86,-3.27 -72.98,-36.19 -64.37,-70.25 1.25,-4.98 3.82,-10.05 7.73,-13.16 -1.31,3.55 -2.41,6.53 -2.6,7.93 -1.22,9.02 0.72,18.51 5.35,26.34 8.04,13.61 22.79,22.27 38.16,26 16.63,4.03 35.43,2.45 48.97,-8.02 9.02,-6.97 14.82,-17.06 18.97,-27.82 0.93,7.01 0.28,14.47 -1.34,21.15z"></path> <g> <path class="fil11" d="M89.06 448.57c4.75,3.9 18.78,-5.48 20.09,-10.52 0.48,-1.85 -0.83,-3.68 -2.25,-4.96 -5.25,-4.75 -12.51,-6.66 -16.63,0.16 -2.08,3.43 -3.02,7.75 -2.75,11.74 0.11,1.71 0.67,2.87 1.54,3.59z"></path> </g> <g> <path class="fil11" d="M184.26 483.51c-0.25,6.68 4.54,14.75 11.26,16.5 7.85,2.04 16.9,-5.75 19.35,-12.74 3.11,-8.89 -2.28,-20.96 -12.59,-21 -8.87,-0.04 -17.69,8.4 -18.02,17.25z"></path> <g> <g> <path class="fil10" d="M208.03 474.85c10.88,-8.82 21.55,-17.91 31.99,-27.25 -0.88,-0.79 -1.76,-1.58 -2.63,-2.37 -11.26,5.88 -22.11,13.2 -32.57,20.39 -0.48,2.52 -0.96,5.04 -1.44,7.57 1.69,0.77 3.23,1.24 4.65,1.66z"></path> </g> <g> <path class="fil1" d="M225.84 451.79c-1.94,1.18 -3.86,2.39 -5.77,3.62 2.04,1.35 3.82,3.12 5.15,5.14 1.8,-1.54 3.59,-3.1 5.39,-4.65 -1.37,-1.52 -3.07,-2.86 -4.76,-4.1z"></path> </g> </g> <g> <path class="fil10" d="M206.83 477.53c0.1,-0.1 0.2,-0.19 0.3,-0.26 -0.89,-0.37 -1.84,-0.61 -2.79,-0.72 -5.28,-0.59 -9.16,2.93 -11.15,7.56 -1.18,2.74 -1.3,6.11 -0.02,8.6 4.91,-4.72 8.98,-10.26 13.67,-15.18z"></path> <path class="fil10" d="M211.98 482.73c-0.13,-0.6 -0.33,-1.17 -0.59,-1.69 -0.29,-0.59 -0.67,-1.12 -1.1,-1.6 -0.07,0.34 -0.24,0.69 -0.54,1 -4.68,4.92 -8.74,10.44 -13.63,15.15 0.69,0.32 1.48,0.54 2.38,0.62 1.62,0.15 3.25,-0.25 4.75,-0.86 4.62,-1.88 9.89,-7.16 8.73,-12.62z"></path> </g> <g> <path class="fil1" d="M192.6 480.38c-0.54,0.99 -1.5,1.93 -2.4,2.61 -2.58,-0.97 -5.52,-2.04 -8.11,-3.01 0.32,-2.51 1.49,-4.9 3.28,-6.69 2.31,1.92 5.01,5.07 7.23,7.09z"></path> </g> <g> <path class="fil10" d="M194.55 474.27c-0.65,0.52 -1.56,0.88 -2.37,1.08 -1.47,-1.4 -3.15,-2.95 -4.62,-4.35 0.93,-1.61 2.4,-2.89 4.12,-3.59 1.01,1.95 1.95,4.86 2.87,6.86z"></path> </g> </g> <g> <g> <path class="fil10" d="M177.5 475.67c-6.08,5.77 -15.79,7.67 -23.27,3.91 -5.69,-2.87 -9.53,-8.4 -12.64,-13.96 -3.11,-5.57 -5.83,-11.48 -10.26,-16.07 -2.33,-2.41 -9.02,-6.18 -9.33,-9.87 -0.31,-3.75 4.11,-6.82 7.53,-8.54 0.59,-0.3 1.16,-0.56 1.66,-0.77 5.31,-2.24 10.95,-3.77 16.7,-4.21 8.15,-0.62 16.64,0.91 23.31,5.85 0.72,0.53 1.42,1.09 2.1,1.68 5.7,4.88 9.94,11.54 11.27,18.91 1.48,8.25 -0.98,17.3 -7.06,23.07z"></path> </g> <path class="fil11" d="M177.5 475.67c-6.08,5.77 -15.79,7.67 -23.27,3.91 -5.69,-2.87 -9.53,-8.4 -12.64,-13.96 -3.11,-5.57 -5.83,-11.48 -10.26,-16.07 -2.33,-2.41 -9.02,-6.18 -9.33,-9.87 -0.31,-3.75 4.11,-6.82 7.53,-8.54 5.81,3.94 11.16,12.8 13.36,17.28 3.9,7.97 7.99,16.64 15.81,20.84 3.83,2.06 8.65,2.78 12.53,0.8 4.55,-2.32 6.7,-7.67 7.37,-12.73 1.03,-7.83 -0.67,-15.99 -4.74,-22.75 -0.18,-0.29 -0.36,-0.59 -0.55,-0.88 5.7,4.88 9.94,11.54 11.27,18.91 1.48,8.25 -0.98,17.3 -7.06,23.07z"></path> <path class="fil5" d="M165.59 452.49c-4.93,1.64 -9.94,10.69 -3.54,10.64 2.9,-0.02 5.01,-2.56 6.72,-4.56 1.97,-2.3 2.18,-6.13 -1.52,-6.33 -0.54,-0.03 -1.1,0.06 -1.66,0.25z"></path> <path class="fil5" d="M145.12 430.03c-3.49,-0 -8.62,4.69 -4.52,6.03 1.85,0.6 3.74,-0.57 5.26,-1.47 1.74,-1.04 2.7,-3.44 0.38,-4.36 -0.34,-0.13 -0.71,-0.19 -1.11,-0.19z"></path> </g> </g> <g> <path class="fil10" d="M210.07 562.94c0.59,0.09 1,0.63 1.32,1.14 2.62,4.23 3.62,9.26 4.14,14.2 0.74,7.12 0.34,15.69 -3.83,21.51 -3.96,-1.15 -7.89,-1.98 -11.63,-3.71 1.62,-4.99 3.21,-10.02 4.02,-15.2 0.81,-5.18 0.82,-10.57 -0.68,-15.59 -0.14,-0.23 -0.55,-0.21 -0.66,0.04 2.62,-0.37 4.84,-1.48 7.33,-2.39z"></path> <g> <path class="fil11" d="M193.15 545.52c-1.04,2.75 -1.55,5.8 -1.57,8.98 -0.02,3.76 0.99,7.64 3.49,10.45 2.23,2.52 5.52,3.98 8.87,4.3 10.83,1.02 19.34,-8.34 20.27,-18.6 0.3,-3.28 0.03,-6.72 -1.49,-9.64 -3.51,-6.77 -11.21,-8.84 -18.17,-6.52 -5.77,1.92 -9.48,5.97 -11.4,11.04z"></path> <path class="fil10" d="M213.55 543.44c-0.15,5.86 -0.6,11.7 -1.26,17.52 2.01,-0.85 3.73,-2.57 4.71,-4.57 2.08,-4.25 0.94,-10.8 -3.45,-12.96z"></path> <path class="fil10" d="M208.84 542.89c-5.27,1.24 -5.97,9.02 -5.57,13.63 0.06,0.66 0.13,1.33 0.41,1.92 0.4,0.83 1.17,1.4 1.97,1.87 0.6,0.35 1.23,0.65 1.89,0.87 0.69,-6.07 1.16,-12.17 1.3,-18.28z"></path> </g> <path class="fil13" d="M215.51 624.09l-23.26 -0.89c-0.2,-5.64 0.05,-11.28 1.4,-16.73 0.06,-0.23 0.11,-0.46 0.18,-0.69 0.15,-0.55 0.36,-1.37 0.65,-2.36 1.42,-4.84 4.59,-13.61 9.84,-13.55 1.34,0.01 2.66,0.49 3.77,1.09 7.1,3.82 6.67,11.02 6.97,16.19 0.12,1.92 0.17,3.96 0.2,6.02 0.02,1.18 0.04,2.37 0.05,3.55 0.04,2.53 0.08,5.04 0.19,7.37z"></path> <path class="fil11" d="M185.92 619.11c1.22,-1.8 2.75,-3.48 4.74,-4.36 1.79,-0.8 3.82,-0.89 5.78,-0.77 5.64,0.34 11.18,2.34 15.74,5.68 2.01,1.47 3.97,3.5 3.99,5.99 -0,-0.15 -19.63,0.22 -21.44,0.27 -6.4,0.18 -14.6,1.71 -8.81,-6.81z"></path> <path class="fil11" d="M215.32 616.73c-3.29,-2.04 -5.26,-6.17 -7.99,-9.02 -2.15,-2.24 -5.64,-4.15 -8.84,-3.85 -2.22,0.21 -3.59,1.25 -4.84,2.61 0.06,-0.23 0.11,-0.46 0.18,-0.69 0.15,-0.55 0.36,-1.37 0.65,-2.36 2.69,-1.62 6.48,-2.13 8.89,-1.49 3.12,0.83 5.69,3.07 7.62,5.57 1.38,1.79 2.6,4.1 4.28,5.67 0.02,1.18 0.04,2.37 0.05,3.55z"></path> </g> <g> <path class="fil10" d="M272.18 570.15c0.53,-0.01 0.96,0.41 1.31,0.81 2.88,3.33 4.46,7.59 5.61,11.85 1.65,6.13 2.49,13.68 -0.34,19.36 -3.63,-0.45 -7.18,-0.62 -10.7,-1.62 0.72,-4.59 1.41,-9.21 1.39,-13.86 -0.02,-4.65 -0.76,-9.36 -2.78,-13.55 -0.16,-0.18 -0.51,-0.11 -0.57,0.13 2.24,-0.69 4.03,-1.98 6.08,-3.12z"></path> <g> <path class="fil11" d="M254.94 557.27c-0.52,2.55 -0.54,5.29 -0.12,8.08 0.5,3.29 1.94,6.54 4.51,8.65 2.31,1.89 5.39,2.71 8.36,2.52 9.62,-0.62 15.75,-10 15.13,-19.11 -0.2,-2.91 -0.91,-5.88 -2.65,-8.23 -4.02,-5.43 -11.05,-6.16 -16.81,-3.16 -4.78,2.49 -7.46,6.55 -8.43,11.25z"></path> <path class="fil10" d="M272.5 552.59c0.69,5.15 1.11,10.32 1.35,15.51 1.64,-1.02 2.91,-2.77 3.48,-4.65 1.22,-4.01 -0.69,-9.58 -4.83,-10.85z"></path> <path class="fil10" d="M268.3 552.77c-4.43,1.82 -3.96,8.73 -2.96,12.7 0.14,0.57 0.3,1.14 0.63,1.62 0.47,0.67 1.22,1.06 1.98,1.36 0.57,0.22 1.17,0.4 1.77,0.49 -0.24,-5.41 -0.69,-10.81 -1.42,-16.17z"></path> </g> <g> <path class="fil13" d="M282.39 624.34l-20.61 -0.8c-0.17,-5 0.05,-9.99 1.25,-14.83 0.05,-0.2 0.1,-0.41 0.16,-0.61 0.13,-0.49 0.32,-1.22 0.58,-2.09 1.26,-4.29 4.07,-12.05 8.73,-12 1.19,0.01 2.36,0.44 3.34,0.97 6.29,3.39 5.9,9.77 6.17,14.35 0.1,1.7 0.15,3.5 0.18,5.34 0.02,1.05 0.03,2.1 0.05,3.14 0.03,2.24 0.06,4.46 0.17,6.53z"></path> <path class="fil11" d="M256.17 619.91c1.08,-1.59 2.44,-3.08 4.2,-3.87 1.59,-0.71 3.39,-0.79 5.13,-0.68 5,0.3 9.9,2.08 13.94,5.04 1.78,1.31 3.52,3.1 3.53,5.31 0,-0.14 -17.39,0.18 -18.99,0.23 -5.67,0.16 -12.93,1.51 -7.8,-6.04z"></path> <path class="fil11" d="M282.22 617.81c-2.92,-1.81 -4.65,-5.47 -7.07,-7.99 -1.9,-1.99 -5,-3.68 -7.83,-3.42 -1.97,0.18 -3.18,1.11 -4.29,2.31 0.05,-0.2 0.1,-0.41 0.16,-0.61 0.13,-0.49 0.32,-1.22 0.58,-2.09 2.38,-1.44 5.74,-1.89 7.87,-1.31 2.76,0.73 5.04,2.73 6.75,4.94 1.22,1.59 2.3,3.64 3.79,5.03 0.02,1.05 0.03,2.1 0.05,3.14z"></path> </g> </g> </g> </g> </svg> 